<svg width="19" height="18" viewBox="0 0 19 18" fill="none" xmlns="http://www.w3.org/2000/svg">
<g clip-path="url(#clip0_1027_147)">
<path d="M6.29163 8.4375H13.0416C13.1908 8.4375 13.3339 8.49676 13.4394 8.60225C13.5449 8.70774 13.6041 8.85082 13.6041 9C13.6041 9.14918 13.5449 9.29226 13.4394 9.39775C13.3339 9.50324 13.1908 9.5625 13.0416 9.5625H6.29163C6.14244 9.5625 5.99937 9.50324 5.89388 9.39775C5.78839 9.29226 5.72913 9.14918 5.72913 9C5.72913 8.85082 5.78839 8.70774 5.89388 8.60225C5.99937 8.49676 6.14244 8.4375 6.29163 8.4375ZM7.97913 11.8125H5.16663C4.4207 11.8125 3.70533 11.5162 3.17789 10.9887C2.65044 10.4613 2.35413 9.74592 2.35413 9C2.35413 8.25408 2.65044 7.53871 3.17789 7.01126C3.70533 6.48382 4.4207 6.1875 5.16663 6.1875H7.97913C8.12831 6.1875 8.27138 6.12824 8.37687 6.02275C8.48236 5.91726 8.54163 5.77418 8.54163 5.625C8.54163 5.47582 8.48236 5.33274 8.37687 5.22725C8.27138 5.12176 8.12831 5.0625 7.97913 5.0625H5.16663C4.12234 5.0625 3.12082 5.47734 2.38239 6.21577C1.64397 6.95419 1.22913 7.95571 1.22913 9C1.22913 10.0443 1.64397 11.0458 2.38239 11.7842C3.12082 12.5227 4.12234 12.9375 5.16663 12.9375H7.97913C8.12831 12.9375 8.27138 12.8782 8.37687 12.7727C8.48236 12.6673 8.54163 12.5242 8.54163 12.375C8.54163 12.2258 8.48236 12.0827 8.37687 11.9773C8.27138 11.8718 8.12831 11.8125 7.97913 11.8125ZM14.1666 5.0625H11.3541C11.2049 5.0625 11.0619 5.12176 10.9564 5.22725C10.8509 5.33274 10.7916 5.47582 10.7916 5.625C10.7916 5.77418 10.8509 5.91726 10.9564 6.02275C11.0619 6.12824 11.2049 6.1875 11.3541 6.1875H14.1666C14.9125 6.1875 15.6279 6.48382 16.1554 7.01126C16.6828 7.53871 16.9791 8.25408 16.9791 9C16.9791 9.74592 16.6828 10.4613 16.1554 10.9887C15.6279 11.5162 14.9125 11.8125 14.1666 11.8125H11.3541C11.2049 11.8125 11.0619 11.8718 10.9564 11.9773C10.8509 12.0827 10.7916 12.2258 10.7916 12.375C10.7916 12.5242 10.8509 12.6673 10.9564 12.7727C11.0619 12.8782 11.2049 12.9375 11.3541 12.9375H14.1666C15.2109 12.9375 16.2124 12.5227 16.9509 11.7842C17.6893 11.0458 18.1041 10.0443 18.1041 9C18.1041 7.95571 17.6893 6.95419 16.9509 6.21577C16.2124 5.47734 15.2109 5.0625 14.1666 5.0625Z" fill="#B8B9BD"/>
</g>
<defs>
<clipPath id="clip0_1027_147">
<rect width="18" height="18" fill="white" transform="translate(0.666626)"/>
</clipPath>
</defs>
</svg>
