<svg width="25" height="24" viewBox="0 0 25 24" fill="none" xmlns="http://www.w3.org/2000/svg">
<path d="M21.3333 12C21.3333 12.1989 21.2543 12.3897 21.1136 12.5303C20.973 12.671 20.7822 12.75 20.5833 12.75H13.0833V20.25C13.0833 20.4489 13.0043 20.6397 12.8636 20.7803C12.723 20.921 12.5322 21 12.3333 21C12.1344 21 11.9436 20.921 11.803 20.7803C11.6623 20.6397 11.5833 20.4489 11.5833 20.25V12.75H4.08331C3.8844 12.75 3.69364 12.671 3.55298 12.5303C3.41233 12.3897 3.33331 12.1989 3.33331 12C3.33331 11.8011 3.41233 11.6103 3.55298 11.4697C3.69364 11.329 3.8844 11.25 4.08331 11.25H11.5833V3.75C11.5833 3.55109 11.6623 3.36032 11.803 3.21967C11.9436 3.07902 12.1344 3 12.3333 3C12.5322 3 12.723 3.07902 12.8636 3.21967C13.0043 3.36032 13.0833 3.55109 13.0833 3.75V11.25H20.5833C20.7822 11.25 20.973 11.329 21.1136 11.4697C21.2543 11.6103 21.3333 11.8011 21.3333 12Z" fill="#7D8088"/>
</svg>
